<svg xmlns="http://www.w3.org/2000/svg" width="153" height="156" viewBox="0 0 153 156">
    <defs>
        <linearGradient id="a" x1="77.207%" x2="12.359%" y1="8.931%" y2="77.405%">
            <stop offset="0%" stop-color="#157DFB"/>
            <stop offset="100%" stop-color="#05D5D0"/>
        </linearGradient>
    </defs>
    <g fill="none" fill-rule="evenodd" opacity=".108">
        <path fill="url(#a)" d="M51.52 148.042c35.232-6.207 36.84-25.006 61.907-56.19 20.95-26.062 39.828-63.337 14.19-84.653C101.98-14.116-19.39 13.213 2.665 71.831 24.72 130.45 16.29 154.25 51.521 148.042z"/>
        <path stroke="#157DFB" d="M63.52 154.042c35.232-6.207 36.84-25.006 61.907-56.19 20.95-26.062 39.828-63.337 14.19-84.653C113.98-8.116-7.39 19.213 14.665 77.831 36.72 136.45 28.29 160.25 63.521 154.042z"/>
        <path stroke="#157DFB" d="M57.52 154.042c35.232-6.207 36.84-25.006 61.907-56.19 20.95-26.062 39.828-63.337 14.19-84.653C107.98-8.116-13.39 19.213 8.665 77.831 30.72 136.45 22.29 160.25 57.521 154.042z"/>
    </g>
</svg>
